<svg width="42" height="42" viewBox="0 0 42 42" fill="none" xmlns="http://www.w3.org/2000/svg">
<path d="M28.5 31C36.8333 24.3333 37.6667 15.3461 31 3.67943M13.5 11C5.16667 17.6667 4.33333 26.8333 11 38.5M21 1C15.6957 1 10.6086 3.10714 6.85786 6.85786C3.10714 10.6086 1 15.6957 1 21C1 26.3043 3.10714 31.3914 6.85786 35.1421C10.6086 38.8929 15.6957 41 21 41C26.3043 41 31.3914 38.8929 35.1421 35.1421C38.8929 31.3914 41 26.3043 41 21C41 15.6957 38.8929 10.6086 35.1421 6.85786C31.3914 3.10714 26.3043 1 21 1ZM21 8.5C17.6848 8.5 14.5054 9.81696 12.1612 12.1612C9.81696 14.5054 8.5 17.6848 8.5 21C8.5 24.3152 9.81696 27.4946 12.1612 29.8388C14.5054 32.183 17.6848 33.5 21 33.5C24.3152 33.5 27.4946 32.183 29.8388 29.8388C32.183 27.4946 33.5 24.3152 33.5 21C33.5 17.6848 32.183 14.5054 29.8388 12.1612C27.4946 9.81696 24.3152 8.5 21 8.5Z" stroke="#303133" stroke-width="2" stroke-linejoin="round"/>
</svg>
